# xmcd CD database file
#
# Track frame offsets:
#	150
#	20575
#	30985
#
# Disc length: 593 seconds
#
# Revision: 0
# Processed by: cddbd v1.5PL3 Copyright (c) Steve Scherf et al.
# Submitted via: CDex 1.50
#
DISCID=17024f03
DTITLE=ICE - IT'S ALL RIGHT
DYEAR=1999
DGENRE=Pop
TTITLE0=IT'S ALL RIGHT
TTITLE1=KM JAM WIRED[jam at No.3 studio]
TTITLE2=DREAM AWAY
EXTD=YEAR: 1999
EXTT0=
EXTT1=
EXTT2=
PLAYORDER=
